# xmcd
#
# Track frame offsets: 
#        150
#        16616
#        35435
#        59355
#        80948
#        96702
#        125626
#        146140
#        167454
#        184326
#        200413
#
# Disc length: 2929 seconds
#
# Revision: 2
# Processed by: cddbd v1.5.2PL0 Copyright (c) Steve Scherf et al.
# Submitted via: ExactAudioCopy v1.0b3
#
DISCID=9f0b6f0b
DTITLE=TREAT - SCRATCH AND BITE (REMASTERED)
DYEAR=1985
DGENRE=Hard Rock
TTITLE0=Changes - 2008 Remaster
TTITLE1=Scratch And Bite - 2008 Remaster
TTITLE2=Get You On The Run - 2008 Remaster
TTITLE3=Hidin' - 2008 Remaster
TTITLE4=Too Wild - 2008 Remaster
TTITLE5=We Are One - 2008 Remaster
TTITLE6=No Room For Strangers - 2008 Remaster
TTITLE7=You Got Me - 2008 Remaster
TTITLE8=Run With The Fire - 2008 Remaster
TTITLE9=On The Outside - 2008 Remaster
TTITLE10=Danger Games - 2008 Remaster
EXTD=
EXTT0=
EXTT1=
EXTT2=
EXTT3=
EXTT4=
EXTT5=
EXTT6=
EXTT7=
EXTT8=
EXTT9=
EXTT10=
PLAYORDER=
